<svg width="179" height="285" viewBox="0 0 179 285" fill="none" xmlns="http://www.w3.org/2000/svg">
<circle cx="158.186" cy="14.2386" r="14" transform="rotate(90.0865 158.186 14.2386)" fill="#B3B3B3" fill-opacity="0.05"/>
<circle cx="110.186" cy="14.1661" r="14" transform="rotate(90.0865 110.186 14.1661)" fill="#B3B3B3" fill-opacity="0.05"/>
<circle cx="62.1857" cy="14.0936" r="14" transform="rotate(90.0865 62.1857 14.0936)" fill="#B3B3B3" fill-opacity="0.05"/>
<circle cx="14.1857" cy="14.0211" r="14" transform="rotate(90.0865 14.1857 14.0211)" fill="#B3B3B3" fill-opacity="0.05"/>
<circle cx="158.131" cy="50.2385" r="14" transform="rotate(90.0865 158.131 50.2385)" fill="#B3B3B3" fill-opacity="0.05"/>
<circle cx="110.131" cy="50.166" r="14" transform="rotate(90.0865 110.131 50.166)" fill="#B3B3B3" fill-opacity="0.05"/>
<circle cx="62.1313" cy="50.0936" r="14" transform="rotate(90.0865 62.1313 50.0936)" fill="#B3B3B3" fill-opacity="0.05"/>
<circle cx="14.1314" cy="50.0211" r="14" transform="rotate(90.0865 14.1314 50.0211)" fill="#B3B3B3" fill-opacity="0.05"/>
<circle cx="158.077" cy="86.2385" r="14" transform="rotate(90.0865 158.077 86.2385)" fill="#B3B3B3" fill-opacity="0.05"/>
<circle cx="110.077" cy="86.166" r="14" transform="rotate(90.0865 110.077 86.166)" fill="#B3B3B3" fill-opacity="0.05"/>
<circle cx="62.077" cy="86.0935" r="14" transform="rotate(90.0865 62.077 86.0935)" fill="#B3B3B3" fill-opacity="0.05"/>
<circle cx="14.077" cy="86.021" r="14" transform="rotate(90.0865 14.077 86.021)" fill="#B3B3B3" fill-opacity="0.05"/>
<circle cx="158.021" cy="123.238" r="14" transform="rotate(90.0865 158.021 123.238)" fill="#B3B3B3" fill-opacity="0.05"/>
<circle cx="110.021" cy="123.166" r="14" transform="rotate(90.0865 110.021 123.166)" fill="#B3B3B3" fill-opacity="0.05"/>
<circle cx="62.0211" cy="123.093" r="14" transform="rotate(90.0865 62.0211 123.093)" fill="#B3B3B3" fill-opacity="0.05"/>
<circle cx="14.0211" cy="123.021" r="14" transform="rotate(90.0865 14.0211 123.021)" fill="#B3B3B3" fill-opacity="0.05"/>
<circle cx="158.186" cy="161.239" r="14" transform="rotate(90.0865 158.186 161.239)" fill="#B3B3B3" fill-opacity="0.05"/>
<circle cx="110.186" cy="161.166" r="14" transform="rotate(90.0865 110.186 161.166)" fill="#B3B3B3" fill-opacity="0.05"/>
<circle cx="62.1857" cy="161.094" r="14" transform="rotate(90.0865 62.1857 161.094)" fill="#B3B3B3" fill-opacity="0.05"/>
<circle cx="14.1857" cy="161.021" r="14" transform="rotate(90.0865 14.1857 161.021)" fill="#B3B3B3" fill-opacity="0.05"/>
<circle cx="158.131" cy="197.239" r="14" transform="rotate(90.0865 158.131 197.239)" fill="#B3B3B3" fill-opacity="0.05"/>
<circle cx="110.131" cy="197.166" r="14" transform="rotate(90.0865 110.131 197.166)" fill="#B3B3B3" fill-opacity="0.05"/>
<circle cx="62.1313" cy="197.094" r="14" transform="rotate(90.0865 62.1313 197.094)" fill="#B3B3B3" fill-opacity="0.05"/>
<circle cx="14.1314" cy="197.021" r="14" transform="rotate(90.0865 14.1314 197.021)" fill="#B3B3B3" fill-opacity="0.05"/>
<circle cx="158.077" cy="233.238" r="14" transform="rotate(90.0865 158.077 233.238)" fill="#B3B3B3" fill-opacity="0.05"/>
<circle cx="110.077" cy="233.166" r="14" transform="rotate(90.0865 110.077 233.166)" fill="#B3B3B3" fill-opacity="0.05"/>
<circle cx="62.077" cy="233.094" r="14" transform="rotate(90.0865 62.077 233.094)" fill="#B3B3B3" fill-opacity="0.05"/>
<circle cx="14.077" cy="233.021" r="14" transform="rotate(90.0865 14.077 233.021)" fill="#B3B3B3" fill-opacity="0.05"/>
<circle cx="158.021" cy="270.238" r="14" transform="rotate(90.0865 158.021 270.238)" fill="#B3B3B3" fill-opacity="0.05"/>
<circle cx="110.021" cy="270.166" r="14" transform="rotate(90.0865 110.021 270.166)" fill="#B3B3B3" fill-opacity="0.05"/>
<circle cx="62.0211" cy="270.093" r="14" transform="rotate(90.0865 62.0211 270.093)" fill="#B3B3B3" fill-opacity="0.05"/>
<circle cx="14.0211" cy="270.021" r="14" transform="rotate(90.0865 14.0211 270.021)" fill="#B3B3B3" fill-opacity="0.05"/>
</svg>
