<svg width="23" height="23" viewBox="0 0 23 23" fill="none" xmlns="http://www.w3.org/2000/svg">
<path d="M5.22584 7.65186H0.284473V22.4909H5.22584V7.65186Z" fill="black"/>
<path d="M21.4426 9.00733C20.4046 7.87426 19.0318 7.30762 17.3249 7.30762C16.696 7.30762 16.1243 7.38498 15.6101 7.5398C15.0961 7.69452 14.6619 7.9116 14.3074 8.19115C13.9532 8.47069 13.671 8.7302 13.4615 8.96967C13.2623 9.19714 13.0675 9.4621 12.8775 9.76184V7.65178H7.95084L7.96595 8.37062C7.97607 8.84994 7.98105 10.3273 7.98105 12.8028C7.98105 15.2786 7.97109 18.5079 7.95105 22.491H12.8775V14.2103C12.8775 13.7013 12.9321 13.2971 13.0421 12.9973C13.2519 12.4879 13.5685 12.0615 13.993 11.7172C14.4175 11.3725 14.9439 11.2004 15.573 11.2004C16.4312 11.2004 17.0629 11.4973 17.4672 12.0913C17.8714 12.6852 18.0736 13.5063 18.0736 14.5545V22.4905H23V13.9859C22.9996 11.7995 22.4809 10.14 21.4426 9.00733Z" fill="black"/>
<path d="M2.78511 0.509277C1.95665 0.509277 1.28538 0.751532 0.771132 1.23557C0.256939 1.71971 0 2.33093 0 3.06981C0 3.79836 0.249544 4.40748 0.748684 4.8965C1.24767 5.38557 1.90661 5.63024 2.72516 5.63024H2.75511C3.59374 5.63024 4.27015 5.38578 4.78418 4.8965C5.29822 4.40748 5.55023 3.79857 5.54032 3.06981C5.53035 2.33098 5.27561 1.71971 4.77663 1.23557C4.2777 0.751322 3.61361 0.509277 2.78511 0.509277Z" fill="black"/>
</svg>
