<svg width="22" height="22" viewBox="0 0 22 22" fill="none" xmlns="http://www.w3.org/2000/svg">
<g clip-path="url(#clip0)">
<path d="M20.2446 4.33866L22 2.65933V2.29175H15.9188L11.5848 13.0791L6.65408 2.29175H0.27775V2.65933L2.32833 5.12791C2.52817 5.31033 2.63267 5.57708 2.60608 5.84566V15.5467C2.66933 15.896 2.55567 16.2553 2.31 16.5092L0 19.3087V19.6717H6.54958V19.3042L4.23958 16.5092C3.98933 16.2544 3.87108 15.9015 3.9215 15.5467V7.15558L9.67083 19.6763H10.3391L15.2827 7.15558V17.1298C15.2827 17.3929 15.2827 17.447 15.1103 17.6193L13.332 19.3399V19.7084H21.9597V19.3408L20.2455 17.6624C20.0952 17.5487 20.0173 17.3581 20.0493 17.1729V4.82816C20.0173 4.64208 20.0942 4.45141 20.2446 4.33866Z" fill="black"/>
</g>
<defs>
<clipPath id="clip0">
<rect width="22" height="22" fill="white"/>
</clipPath>
</defs>
</svg>
