<svg width="1401" height="94" viewBox="0 0 1401 94" fill="none" xmlns="http://www.w3.org/2000/svg">
<path d="M103.247 2.39499V30.631H69.219V130H33.743V30.631H0.0770002V2.39499H103.247ZM151.848 2.39499V130H116.372V2.39499H151.848ZM321.014 2.39499V130H285.538V59.591L261.465 130H231.781L207.527 59.048V130H172.051V2.39499H214.948L246.985 85.293L278.298 2.39499H321.014ZM376.684 2.39499V130H341.208V2.39499H376.684ZM527.643 2.39499V30.631H493.615V130H458.139V30.631H424.473V2.39499H527.643ZM576.244 30.812V51.627H616.969V78.596H576.244V101.583H622.399V130H540.768V2.39499H622.399V30.812H576.244ZM724.456 2.39499V86.922C724.456 101.281 720.534 112.262 712.691 119.864C704.968 127.466 694.289 131.267 680.654 131.267C666.174 131.267 654.59 127.225 645.902 119.14C637.335 111.055 633.051 99.411 633.051 84.207H668.165C668.286 94.2223 671.966 99.23 679.206 99.23C685.722 99.23 688.98 95.1273 688.98 86.922V2.39499H724.456ZM780.382 2.39499V76.424C780.382 83.302 781.951 88.6113 785.088 92.352C788.346 96.0927 793.233 97.963 799.749 97.963C806.265 97.963 811.152 96.0927 814.41 92.352C817.789 88.4907 819.478 83.1813 819.478 76.424V2.39499H854.954V76.424C854.954 88.1287 852.48 98.144 847.533 106.47C842.586 114.675 835.828 120.89 827.261 125.113C818.814 129.216 809.402 131.267 799.025 131.267C788.648 131.267 779.356 129.216 771.151 125.113C763.066 120.89 756.671 114.675 751.965 106.47C747.38 98.2647 745.087 88.2493 745.087 76.424V2.39499H780.382ZM1023.45 2.39499V130H987.974V59.591L963.901 130H934.217L909.963 59.048V130H874.487V2.39499H917.384L949.421 85.293L980.734 2.39499H1023.45ZM1104.82 131.267C1092.88 131.267 1081.9 128.492 1071.88 122.941C1061.86 117.27 1053.9 109.487 1047.99 99.592C1042.2 89.5767 1039.3 78.2943 1039.3 65.745C1039.3 53.1957 1042.2 41.9737 1047.99 32.079C1053.9 22.0637 1061.86 14.2807 1071.88 8.73C1081.9 3.17933 1092.88 0.403996 1104.82 0.403996C1116.89 0.403996 1127.87 3.17933 1137.76 8.73C1147.78 14.2807 1155.68 22.0637 1161.47 32.079C1167.27 41.9737 1170.16 53.1957 1170.16 65.745C1170.16 78.2943 1167.27 89.5767 1161.47 99.592C1155.68 109.487 1147.78 117.27 1137.76 122.941C1127.75 128.492 1116.77 131.267 1104.82 131.267ZM1104.82 98.325C1113.87 98.325 1120.99 95.3687 1126.18 89.456C1131.49 83.5433 1134.14 75.6397 1134.14 65.745C1134.14 55.609 1131.49 47.645 1126.18 41.853C1120.99 35.9403 1113.87 32.984 1104.82 32.984C1095.65 32.984 1088.47 35.9403 1083.28 41.853C1078.09 47.645 1075.5 55.609 1075.5 65.745C1075.5 75.7603 1078.09 83.7243 1083.28 89.637C1088.47 95.429 1095.65 98.325 1104.82 98.325ZM1221.59 102.85H1261.23V130H1186.11V2.39499H1221.59V102.85ZM1355.75 109.185H1310.5L1303.62 130H1266.33L1312.85 2.39499H1353.75L1400.09 130H1362.62L1355.75 109.185ZM1346.88 82.035L1333.12 40.767L1319.55 82.035H1346.88Z" fill="#B2B2B2" fill-opacity="0.05"/>
</svg>
